<mxfile host="app.diagrams.net" agent="Mozilla/5.0 (Windows NT 10.0; Win64; x64) AppleWebKit/537.36 (KHTML, like Gecko) Chrome/128.0.0.0 Safari/537.36 Edg/128.0.0.0" version="24.7.7">
  <diagram name="第 1 页" id="vC_219ZFYQ1or6RJsT1j">
    <mxGraphModel dx="1426" dy="757" grid="1" gridSize="10" guides="1" tooltips="1" connect="1" arrows="1" fold="1" page="1" pageScale="1" pageWidth="827" pageHeight="1169" math="0" shadow="0">
      <root>
        <mxCell id="0" />
        <mxCell id="1" parent="0" />
        <mxCell id="WpM83U6ZI5eYYa5Q3hZr-3" value="" style="edgeStyle=orthogonalEdgeStyle;rounded=0;orthogonalLoop=1;jettySize=auto;html=1;" edge="1" parent="1" source="WpM83U6ZI5eYYa5Q3hZr-1" target="WpM83U6ZI5eYYa5Q3hZr-2">
          <mxGeometry relative="1" as="geometry" />
        </mxCell>
        <mxCell id="WpM83U6ZI5eYYa5Q3hZr-1" value="&lt;div style=&quot;background-color:#ffffff;color:#080808&quot;&gt;&lt;pre style=&quot;font-family:&#39;JetBrains Mono&#39;,monospace;font-size:9.8pt;&quot;&gt;mysqld_main()&lt;/pre&gt;&lt;/div&gt;" style="strokeWidth=2;html=1;shape=mxgraph.flowchart.start_1;whiteSpace=wrap;" vertex="1" parent="1">
          <mxGeometry x="80" y="110" width="100" height="60" as="geometry" />
        </mxCell>
        <mxCell id="WpM83U6ZI5eYYa5Q3hZr-5" value="" style="edgeStyle=orthogonalEdgeStyle;rounded=0;orthogonalLoop=1;jettySize=auto;html=1;" edge="1" parent="1" source="WpM83U6ZI5eYYa5Q3hZr-2" target="WpM83U6ZI5eYYa5Q3hZr-4">
          <mxGeometry relative="1" as="geometry" />
        </mxCell>
        <mxCell id="WpM83U6ZI5eYYa5Q3hZr-7" value="" style="edgeStyle=orthogonalEdgeStyle;rounded=0;orthogonalLoop=1;jettySize=auto;html=1;" edge="1" parent="1" source="WpM83U6ZI5eYYa5Q3hZr-2" target="WpM83U6ZI5eYYa5Q3hZr-6">
          <mxGeometry relative="1" as="geometry" />
        </mxCell>
        <mxCell id="WpM83U6ZI5eYYa5Q3hZr-2" value="&lt;div style=&quot;background-color:#ffffff;color:#080808&quot;&gt;&lt;pre style=&quot;font-family:&#39;JetBrains Mono&#39;,monospace;font-size:9.8pt;&quot;&gt;my_init()&lt;/pre&gt;&lt;/div&gt;" style="whiteSpace=wrap;html=1;strokeWidth=2;" vertex="1" parent="1">
          <mxGeometry x="250" y="110" width="120" height="60" as="geometry" />
        </mxCell>
        <mxCell id="WpM83U6ZI5eYYa5Q3hZr-9" value="" style="edgeStyle=orthogonalEdgeStyle;rounded=0;orthogonalLoop=1;jettySize=auto;html=1;" edge="1" parent="1" source="WpM83U6ZI5eYYa5Q3hZr-4" target="WpM83U6ZI5eYYa5Q3hZr-8">
          <mxGeometry relative="1" as="geometry" />
        </mxCell>
        <mxCell id="WpM83U6ZI5eYYa5Q3hZr-4" value="&lt;div style=&quot;background-color:#ffffff;color:#080808&quot;&gt;&lt;pre style=&quot;font-family:&#39;JetBrains Mono&#39;,monospace;font-size:9.8pt;&quot;&gt;&lt;span style=&quot;font-size: 9.8pt; white-space: normal;&quot;&gt;load_defaults&lt;/span&gt;()&lt;/pre&gt;&lt;/div&gt;" style="whiteSpace=wrap;html=1;strokeWidth=2;" vertex="1" parent="1">
          <mxGeometry x="250" y="250" width="120" height="60" as="geometry" />
        </mxCell>
        <mxCell id="WpM83U6ZI5eYYa5Q3hZr-6" value="&lt;div style=&quot;background-color:#ffffff;color:#080808&quot;&gt;&lt;pre style=&quot;font-family:&#39;JetBrains Mono&#39;,monospace;font-size:9.8pt;&quot;&gt;&lt;div&gt;&lt;pre style=&quot;font-family:&#39;JetBrains Mono&#39;,monospace;font-size:9.8pt;&quot;&gt;&lt;span style=&quot;color:#00627a;&quot;&gt;my_thread_global_init&lt;/span&gt;()&lt;br&gt;&lt;div&gt;&lt;pre style=&quot;font-family:&#39;JetBrains Mono&#39;,monospace;font-size:9.8pt;&quot;&gt;&lt;span style=&quot;color:#00627a;&quot;&gt;my_thread_init()&lt;/span&gt;&lt;/pre&gt;&lt;/div&gt;&lt;/pre&gt;&lt;/div&gt;&lt;/pre&gt;&lt;/div&gt;" style="whiteSpace=wrap;html=1;strokeWidth=2;align=center;verticalAlign=middle;" vertex="1" parent="1">
          <mxGeometry x="450" y="100" width="180" height="80" as="geometry" />
        </mxCell>
        <mxCell id="WpM83U6ZI5eYYa5Q3hZr-11" value="" style="edgeStyle=orthogonalEdgeStyle;rounded=0;orthogonalLoop=1;jettySize=auto;html=1;" edge="1" parent="1" source="WpM83U6ZI5eYYa5Q3hZr-8" target="WpM83U6ZI5eYYa5Q3hZr-10">
          <mxGeometry relative="1" as="geometry" />
        </mxCell>
        <mxCell id="WpM83U6ZI5eYYa5Q3hZr-8" value="&lt;div style=&quot;background-color:#ffffff;color:#080808&quot;&gt;&lt;pre style=&quot;font-family:&#39;JetBrains Mono&#39;,monospace;font-size:9.8pt;&quot;&gt;&lt;div&gt;&lt;pre style=&quot;font-family:&#39;JetBrains Mono&#39;,monospace;font-size:9.8pt;&quot;&gt;sys_var_init()&lt;/pre&gt;&lt;/div&gt;&lt;/pre&gt;&lt;/div&gt;" style="whiteSpace=wrap;html=1;strokeWidth=2;" vertex="1" parent="1">
          <mxGeometry x="250" y="390" width="120" height="60" as="geometry" />
        </mxCell>
        <mxCell id="WpM83U6ZI5eYYa5Q3hZr-13" value="" style="edgeStyle=orthogonalEdgeStyle;rounded=0;orthogonalLoop=1;jettySize=auto;html=1;" edge="1" parent="1" source="WpM83U6ZI5eYYa5Q3hZr-10" target="WpM83U6ZI5eYYa5Q3hZr-12">
          <mxGeometry relative="1" as="geometry" />
        </mxCell>
        <mxCell id="WpM83U6ZI5eYYa5Q3hZr-10" value="&lt;div style=&quot;background-color:#ffffff;color:#080808&quot;&gt;&lt;pre style=&quot;font-family:&#39;JetBrains Mono&#39;,monospace;font-size:9.8pt;&quot;&gt;&lt;pre style=&quot;font-family:&#39;JetBrains Mono&#39;,monospace;font-size:9.8pt;&quot;&gt;&lt;span style=&quot;font-size: 9.8pt; white-space: normal;&quot;&gt;component_infrastructure_init&lt;/span&gt;()&lt;/pre&gt;&lt;/pre&gt;&lt;/div&gt;" style="whiteSpace=wrap;html=1;strokeWidth=2;" vertex="1" parent="1">
          <mxGeometry x="195" y="530" width="230" height="60" as="geometry" />
        </mxCell>
        <mxCell id="WpM83U6ZI5eYYa5Q3hZr-15" value="" style="edgeStyle=orthogonalEdgeStyle;rounded=0;orthogonalLoop=1;jettySize=auto;html=1;" edge="1" parent="1" source="WpM83U6ZI5eYYa5Q3hZr-12" target="WpM83U6ZI5eYYa5Q3hZr-14">
          <mxGeometry relative="1" as="geometry" />
        </mxCell>
        <mxCell id="WpM83U6ZI5eYYa5Q3hZr-12" value="&lt;div style=&quot;background-color:#ffffff;color:#080808&quot;&gt;&lt;pre style=&quot;font-family:&#39;JetBrains Mono&#39;,monospace;font-size:9.8pt;&quot;&gt;init_common_variables()&lt;/pre&gt;&lt;/div&gt;" style="whiteSpace=wrap;html=1;strokeWidth=2;" vertex="1" parent="1">
          <mxGeometry x="225" y="670" width="170" height="60" as="geometry" />
        </mxCell>
        <mxCell id="WpM83U6ZI5eYYa5Q3hZr-17" value="" style="edgeStyle=orthogonalEdgeStyle;rounded=0;orthogonalLoop=1;jettySize=auto;html=1;" edge="1" parent="1" source="WpM83U6ZI5eYYa5Q3hZr-14" target="WpM83U6ZI5eYYa5Q3hZr-16">
          <mxGeometry relative="1" as="geometry" />
        </mxCell>
        <mxCell id="WpM83U6ZI5eYYa5Q3hZr-14" value="&lt;div style=&quot;background-color:#ffffff;color:#080808&quot;&gt;&lt;pre style=&quot;font-family:&#39;JetBrains Mono&#39;,monospace;font-size:9.8pt;&quot;&gt;set_ports()&lt;/pre&gt;&lt;/div&gt;" style="whiteSpace=wrap;html=1;strokeWidth=2;" vertex="1" parent="1">
          <mxGeometry x="250" y="810" width="120" height="60" as="geometry" />
        </mxCell>
        <mxCell id="WpM83U6ZI5eYYa5Q3hZr-16" value="&lt;div style=&quot;background-color:#ffffff;color:#080808&quot;&gt;&lt;pre style=&quot;font-family:&#39;JetBrains Mono&#39;,monospace;font-size:9.8pt;&quot;&gt;plugin_register_builtin_and_init_core_se()&lt;/pre&gt;&lt;/div&gt;" style="whiteSpace=wrap;html=1;strokeWidth=2;" vertex="1" parent="1">
          <mxGeometry x="155" y="950" width="310" height="60" as="geometry" />
        </mxCell>
      </root>
    </mxGraphModel>
  </diagram>
</mxfile>
